# xmcd
# 
# Track frame offsets:
#     150
#     13685
#     28293
#     50548
#     64871
#     83815
#     97068
#     113131
#     128401
#     152442
#     171732
#     189587
#     208602
#     227770
# 
# Disc length: 3226
# 
# Revision: 1
# Processed by: cddbd v1.5.2PL0 Copyright (c) Steve Scherf et al.
# Submitted via: BonkEnc v1.0
# 
DISCID=bd0c980e
DTITLE=Varios - Amigos do Bem
DYEAR=2005
DGENRE=Beneficiente
TTITLE0=Novos Amigos - Bruno e Marrone
TTITLE1=A Vitoria do Ser - Daniel
TTITLE2=Um Mundo Melhor - Edson e Hudson
TTITLE3=Acreditar no Amanha - Rick e Renner
TTITLE4=A Força da Fé - Gian e Giovani
TTITLE5=Viver Como se Deve - Rio Negro e Solimoes
TTITLE6=Canto da Natureza - Elba Ramalho
TTITLE7=Eu to de Bem com a Vida - Dominguinhos
TTITLE8=Outro Dia, Nova Chance - Cesar e Paulinho
TTITLE9=Vida de Caboclo - Sergio Reis
TTITLE10=Feitos para Brilhar - Ze Henrique e Gabriel
TTITLE11=Chega de Sofrer - Guilherme e Santiago
TTITLE12=Consciencia - Mococa e Paraiso
TTITLE13=Ave Maria - Fagner
EXTD=Obrigado a todos os novos Amigos do Bem.\nQue Deus os Abençoe !!!
EXTT0=
EXTT1=
EXTT2=
EXTT3=
EXTT4=
EXTT5=
EXTT6=
EXTT7=
EXTT8=
EXTT9=
EXTT10=
EXTT11=
EXTT12=
EXTT13=
PLAYORDER=
